<svg width="952" height="851" viewBox="0 0 952 851" fill="none" xmlns="http://www.w3.org/2000/svg">
<mask id="mask0_94_152" style="mask-type:alpha" maskUnits="userSpaceOnUse" x="0" y="0" width="952" height="851">
<path d="M951.5 850.5V0.5H0.5V850.5H951.5Z" fill="#D9D9D9"/>
</mask>
<g mask="url(#mask0_94_152)">
<mask id="mask1_94_152" style="mask-type:alpha" maskUnits="userSpaceOnUse" x="2" y="-87" width="1126" height="1200">
<path d="M2.99998 848.999C26 255 553 426 950.5 0.499474C1348 -425.001 950.5 848.999 950.5 848.999C950.5 848.999 -20 1443 2.99998 848.999Z" fill="#D9D9D9"/>
</mask>
<g mask="url(#mask1_94_152)">
<path d="M0 -0.000488281H951V851H0V-0.000488281Z" fill="#263238"/>
</g>
<path d="M578.344 187.936C557.032 173.088 539.032 149.536 522.792 130.176C449.192 42.1764 323 51.7763 231.784 113.808C197.432 137.136 173.256 162.608 160.104 203.408C150.408 233.6 155 270.192 178.84 290.928C194.232 304.352 215 309.344 233.4 318.128C311.56 355.664 233.4 412 178.84 456C151.816 485.12 161.992 519.76 170.536 560.016C183.784 621.872 253.224 662.16 308.76 677.552C391.448 700.464 472.872 684.336 504.328 673.232C567.512 650.96 624.76 613.088 673.544 567.504C707.976 535.312 738.984 499.216 776.776 471.04C799.736 453.92 824.92 439.952 847.928 422.88C870.936 405.808 892.184 384.944 903.384 358.576C919.512 320.576 906.584 274.16 875.592 247.536C844.6 220.912 800.296 210.096 760.664 208.912C693.784 206.944 632.232 225.488 578.344 187.936Z" fill="#263238"/>
<path d="M627.848 178.289C672.008 210.657 732.456 202.289 784.648 200.513C798.328 200.049 815.048 194.817 823.592 184.065C834.248 170.497 828.2 155.953 817.896 142.129C799.048 116.913 771.272 99.6333 742.664 86.5133C707.688 70.5133 681.016 58.5133 606.744 53.4253C576.344 51.3453 553.448 57.1853 548.392 64.6253C539.032 78.5613 551.032 91.6333 560.376 105.137C577.691 130.208 598.121 152.977 621.176 172.897C623.363 174.828 625.587 176.625 627.848 178.289Z" fill="#263238"/>
<path opacity="0.3" d="M335.592 281.728C321.985 281.728 308.683 277.693 297.369 270.133C286.055 262.573 277.236 251.828 272.029 239.257C266.822 226.685 265.459 212.852 268.114 199.506C270.769 186.16 277.321 173.901 286.943 164.279C296.565 154.657 308.824 148.105 322.17 145.45C335.516 142.795 349.349 144.158 361.921 149.365C374.492 154.572 385.237 163.391 392.797 174.705C400.357 186.019 404.392 199.321 404.392 212.928C404.392 231.175 397.143 248.674 384.241 261.577C371.338 274.479 353.839 281.728 335.592 281.728ZM335.592 145.872C322.301 145.872 309.309 149.813 298.258 157.197C287.207 164.581 278.594 175.076 273.507 187.356C268.421 199.635 267.09 213.147 269.683 226.182C272.276 239.218 278.676 251.191 288.074 260.59C297.473 269.988 309.446 276.388 322.482 278.981C335.517 281.574 349.029 280.243 361.308 275.157C373.588 270.07 384.083 261.457 391.467 250.406C398.851 239.355 402.792 226.363 402.792 213.072C402.792 195.249 395.712 178.157 383.11 165.554C370.507 152.952 353.415 145.872 335.592 145.872Z" fill="white"/>
<path opacity="0.2" d="M335.592 286.72C321.013 286.72 306.762 282.397 294.64 274.297C282.518 266.198 273.07 254.685 267.491 241.216C261.912 227.747 260.452 212.926 263.296 198.627C266.141 184.329 273.161 171.194 283.47 160.886C293.779 150.577 306.913 143.556 321.212 140.712C335.51 137.868 350.331 139.328 363.8 144.907C377.27 150.486 388.782 159.934 396.881 172.056C404.981 184.178 409.304 198.429 409.304 213.008C409.283 232.551 401.51 251.288 387.691 265.107C373.872 278.926 355.135 286.699 335.592 286.72ZM335.592 140.896C321.33 140.896 307.388 145.125 295.529 153.049C283.67 160.973 274.427 172.235 268.969 185.412C263.511 198.589 262.083 213.088 264.866 227.076C267.648 241.065 274.516 253.914 284.601 263.999C294.686 274.084 307.535 280.952 321.524 283.734C335.512 286.517 350.011 285.089 363.188 279.631C376.365 274.173 387.627 264.93 395.551 253.071C403.475 241.212 407.704 227.27 407.704 213.008C407.687 193.888 400.084 175.556 386.564 162.036C373.044 148.516 354.712 140.913 335.592 140.896Z" fill="white"/>
<path opacity="0.1" d="M335.592 292.8C319.798 292.8 304.359 288.116 291.226 279.342C278.094 270.567 267.859 258.095 261.815 243.503C255.771 228.912 254.189 212.855 257.27 197.365C260.352 181.874 267.957 167.645 279.125 156.477C290.293 145.309 304.522 137.704 320.013 134.622C335.503 131.541 351.56 133.122 366.152 139.167C380.743 145.211 393.215 155.446 401.99 168.578C410.765 181.711 415.448 197.15 415.448 212.944C415.41 234.111 406.984 254.401 392.017 269.369C377.049 284.336 356.759 292.762 335.592 292.8ZM335.592 134.688C320.114 134.688 304.984 139.278 292.115 147.876C279.246 156.475 269.216 168.697 263.293 182.997C257.37 197.296 255.82 213.031 258.84 228.211C261.859 243.391 269.312 257.335 280.257 268.279C291.201 279.224 305.145 286.677 320.325 289.696C335.505 292.716 351.24 291.166 365.539 285.243C379.839 279.32 392.061 269.29 400.659 256.421C409.258 243.551 413.848 228.421 413.848 212.944C413.793 192.212 405.529 172.346 390.863 157.692C376.197 143.038 356.324 134.79 335.592 134.752V134.688Z" fill="white"/>
<path opacity="0.1" d="M335.592 300.496C318.285 300.496 301.366 295.363 286.976 285.748C272.585 276.132 261.37 262.465 254.747 246.474C248.125 230.484 246.393 212.889 249.771 195.915C253.148 178.94 261.484 163.349 273.723 151.111C285.962 138.874 301.556 130.542 318.531 127.167C335.506 123.793 353.1 125.528 369.089 132.153C385.078 138.779 398.744 149.997 408.357 164.389C417.97 178.781 423.099 195.7 423.096 213.008C423.071 236.206 413.843 258.447 397.438 274.849C381.033 291.251 358.79 300.475 335.592 300.496ZM335.592 127.104C318.602 127.104 301.993 132.142 287.866 141.581C273.74 151.021 262.729 164.437 256.227 180.134C249.725 195.831 248.024 213.103 251.339 229.767C254.653 246.431 262.835 261.737 274.849 273.751C286.863 285.765 302.169 293.947 318.833 297.261C335.497 300.576 352.769 298.875 368.466 292.373C384.163 285.871 397.579 274.86 407.019 260.734C416.458 246.607 421.496 229.998 421.496 213.008C421.471 190.232 412.412 168.397 396.307 152.293C380.203 136.188 358.367 127.129 335.592 127.104Z" fill="white"/>
<path d="M335.592 276.112C370.443 276.112 398.696 247.859 398.696 213.008C398.696 178.156 370.443 149.904 335.592 149.904C300.741 149.904 272.488 178.156 272.488 213.008C272.488 247.859 300.741 276.112 335.592 276.112Z" fill="#285CBA"/>
<path opacity="0.7" d="M335.592 276.112C370.443 276.112 398.696 247.859 398.696 213.008C398.696 178.156 370.443 149.904 335.592 149.904C300.741 149.904 272.488 178.156 272.488 213.008C272.488 247.859 300.741 276.112 335.592 276.112Z" fill="white"/>
<path d="M328.536 175.136C328.088 174.048 327.608 172.992 327.128 171.936C326.248 170.096 316.584 152.736 315.928 152.992C312.11 154.239 308.418 155.846 304.904 157.792C308.744 163.488 313.56 168.992 316.968 174.944C319.287 179.378 321.178 184.023 322.616 188.816C323.223 190.86 324.123 192.805 325.288 194.592C325.88 195.484 326.646 196.248 327.539 196.839C328.432 197.43 329.435 197.835 330.488 198.032C330.825 198.093 331.173 198.066 331.496 197.952C332.248 197.632 332.456 196.672 332.52 195.856C332.785 188.736 331.423 181.649 328.536 175.136Z" fill="#285CBA"/>
<path d="M381.832 256C371.144 245.616 351.24 226.176 342.872 217.392C336.472 210.752 327.768 207.792 321.368 201.392C316.984 197.024 315.272 190.736 313.528 184.8C312.552 181.456 310.76 170.928 305.752 172.112C305.592 173.84 306.632 177.808 304.776 178.976C302.92 180.144 301.576 176.656 300.92 175.648C300.264 174.64 294.52 165.2 294.632 165.12C292.822 166.663 291.102 168.308 289.48 170.048C295.032 180.288 303.88 196.736 305.992 200.128C308.984 205.136 305.992 210.672 302.264 205.296C299.96 201.952 289.656 188.864 282.216 179.456C279.776 183.31 277.764 187.42 276.216 191.712C282.072 200.304 288.744 210.912 298.296 215.712C299.851 216.6 301.592 217.114 303.38 217.214C305.168 217.314 306.955 216.997 308.6 216.288C310.76 215.2 312.472 213.2 314.824 212.656C317.768 211.968 320.664 213.776 323.112 215.552C328.184 219.216 333.128 223.072 337.816 227.216C340.254 229.031 342.481 231.113 344.456 233.424C345.416 234.832 345.608 237.92 344.008 239.072C344.008 239.664 341.704 239.568 341.384 239.488C340.539 239.179 339.759 238.718 339.08 238.128C336.984 236.72 334.744 235.488 332.584 234.176C330.984 233.152 328.776 232.112 327.112 233.136C327.129 234.008 327.33 234.866 327.702 235.655C328.074 236.444 328.609 237.145 329.272 237.712C333.502 242.323 338.169 246.514 343.208 250.224C344.139 250.972 345.188 251.562 346.312 251.968C346.876 252.169 347.479 252.236 348.073 252.164C348.667 252.092 349.237 251.882 349.736 251.552C350.728 250.816 351.192 249.504 352.264 248.88C352.784 248.627 353.36 248.512 353.937 248.545C354.514 248.579 355.073 248.76 355.56 249.072C357.832 250.368 359.56 252.864 361.736 254.416C365.453 257.507 368.935 260.871 372.152 264.48C375.658 261.988 378.901 259.147 381.832 256Z" fill="#285CBA"/>
<path d="M335.592 276.112C343.467 276.118 351.272 274.641 358.6 271.76C348.232 262.416 331.736 247.76 326.792 244.56C322.392 241.712 319.352 246.16 316.76 249.152C315.496 250.624 314.008 252.48 311.96 252.896C309.016 253.488 306.152 250.432 306.072 247.6C306.154 245.358 307.053 243.224 308.6 241.6C310.088 239.888 311.976 238.4 312.728 236.272C313.912 232.96 311.976 229.408 310.104 226.416C309.502 225.122 308.416 224.116 307.08 223.616C305.16 223.2 303.512 224.864 302.136 226.24C300.496 227.9 298.671 229.365 296.696 230.608C295.501 231.49 294.068 231.992 292.584 232.048C290.967 231.822 289.45 231.133 288.216 230.064C285.039 227.884 282.225 225.217 279.88 222.16C278.584 220.56 277.32 218.848 276.056 217.168C275.352 216.224 272.472 213.456 272.472 212.368C272.472 212.576 272.472 212.784 272.472 212.992C272.47 221.281 274.101 229.49 277.272 237.149C280.444 244.808 285.093 251.767 290.955 257.629C296.816 263.491 303.776 268.14 311.435 271.311C319.094 274.483 327.302 276.114 335.592 276.112Z" fill="#285CBA"/>
<path d="M361.4 155.408C361.096 158.816 362.568 162.848 367.432 169.312C369.976 172.688 372.632 176 375.32 179.28C377.416 181.84 381.192 184.864 381.16 188.432C381.16 190.816 379.352 192.8 377.512 194.304C375.927 195.61 374.218 196.757 372.408 197.728C370.92 198.512 369.208 199.52 369.112 201.216C369.016 202.912 370.584 203.84 371.928 204.624C377.016 207.6 382.179 210.426 387.416 213.104C389.688 214.272 392.696 215.2 394.6 216.912C395.928 218.112 396.744 219.824 398.168 220.992C398.633 218.352 398.826 215.671 398.744 212.992C398.742 200.813 395.214 188.895 388.588 178.677C381.961 168.459 372.519 160.377 361.4 155.408Z" fill="#285CBA"/>
<path d="M361 193.184C361.793 192.599 362.621 192.065 363.48 191.584C365.352 190.576 367.528 189.456 368.024 187.392C368.664 184.608 365.88 182.336 363.432 180.848L355.816 176.192C354.549 175.5 353.39 174.626 352.376 173.6C351.408 172.412 350.645 171.071 350.12 169.632C348.574 165.939 347.27 162.15 346.216 158.288C345.816 156.864 345.032 150.528 342.84 150.288C337.84 149.719 332.791 149.757 327.8 150.4C329.08 150.32 331.992 158.016 332.408 159.152C334.352 164.161 335.909 169.312 337.064 174.56C338.024 179.712 344.424 182.288 348.456 185.088C349.064 185.436 349.559 185.953 349.88 186.576C350.087 187.396 349.96 188.264 349.528 188.992C348.235 191.302 346.808 193.535 345.256 195.68C343.709 197.86 343.077 200.559 343.496 203.2C344.309 205.532 345.768 207.585 347.704 209.12C361.176 222.016 375.416 234.432 388.168 247.936C390.889 243.853 393.123 239.466 394.824 234.864C395.288 233.616 387.928 227.68 386.968 226.864C382.632 223.424 377.752 220.608 373.4 217.088L361.288 207.264C359.33 205.985 357.811 204.136 356.936 201.968C356.682 200.886 356.677 199.761 356.921 198.678C357.165 197.594 357.652 196.58 358.344 195.712C359.099 194.742 359.994 193.89 361 193.184Z" fill="#285CBA"/>
<g opacity="0.2">
<path d="M342.664 250.88C343.112 251.968 343.576 253.008 344.072 254.08C344.952 255.92 354.616 273.28 355.272 273.024C359.096 271.791 362.788 270.183 366.296 268.224C362.456 262.528 357.64 257.024 354.232 251.088C351.907 246.651 350.015 242 348.584 237.2C347.975 235.154 347.069 233.208 345.896 231.424C345.304 230.536 344.54 229.776 343.65 229.188C342.76 228.6 341.761 228.196 340.712 228C340.383 227.904 340.033 227.904 339.704 228C338.952 228.304 338.744 229.264 338.68 230.08C338.387 237.228 339.75 244.346 342.664 250.88Z" fill="white"/>
<path d="M289.4 170.064C300.088 180.464 319.976 199.888 328.36 208.672C334.76 215.328 343.464 218.272 349.864 224.672C354.232 229.04 355.96 235.328 357.688 241.264C358.664 244.608 360.472 255.136 365.48 253.952C365.64 252.224 364.6 248.256 366.456 247.088C368.312 245.92 369.656 249.392 370.296 250.416C370.936 251.44 376.696 260.848 376.6 260.944C378.392 259.386 380.101 257.736 381.72 256C376.168 245.744 367.224 229.312 365.208 225.92C362.216 220.896 365.208 215.36 368.92 220.736C371.24 224.08 381.528 237.184 388.984 246.576C391.421 242.719 393.433 238.61 394.984 234.32C389.128 225.728 382.44 215.12 372.904 210.32C371.349 209.431 369.608 208.917 367.82 208.817C366.032 208.717 364.245 209.034 362.6 209.744C360.44 210.832 358.728 212.832 356.376 213.376C353.432 214.064 350.536 212.24 348.088 210.464C343.016 206.8 338.072 202.944 333.384 198.816C331.272 196.944 328.344 194.928 326.744 192.592C325.784 191.184 325.592 188.096 327.192 186.944C327.192 186.352 329.48 186.448 329.816 186.528C330.653 186.853 331.431 187.312 332.12 187.888C334.216 189.296 336.456 190.544 338.616 191.856C340.216 192.88 342.408 193.904 344.088 192.88C344.073 192.008 343.872 191.15 343.496 190.363C343.121 189.576 342.58 188.879 341.912 188.32C337.7 183.696 333.037 179.504 327.992 175.808C327.059 175.057 326.011 174.463 324.888 174.048C324.32 173.853 323.716 173.79 323.12 173.862C322.525 173.934 321.953 174.14 321.448 174.464C320.472 175.2 319.992 176.528 318.936 177.136C318.419 177.395 317.843 177.516 317.265 177.485C316.687 177.454 316.127 177.273 315.64 176.96C313.368 175.648 311.624 173.152 309.464 171.616C305.732 168.541 302.235 165.193 299 161.6C295.523 164.09 292.307 166.926 289.4 170.064Z" fill="white"/>
<path d="M335.592 149.904C327.72 149.903 319.916 151.374 312.584 154.24C322.968 163.6 339.464 178.24 344.408 181.44C348.808 184.288 351.848 179.84 354.44 176.832C355.704 175.376 357.192 173.504 359.24 173.104C362.184 172.496 365.048 175.568 365.128 178.4C365.041 180.639 364.136 182.768 362.584 184.384C361.112 186.096 359.224 187.584 358.456 189.696C357.272 193.024 359.224 196.576 361.096 199.552C361.697 200.85 362.783 201.86 364.12 202.368C366.024 202.784 367.688 201.12 369.064 199.728C370.699 198.073 372.519 196.613 374.488 195.376C375.685 194.485 377.125 193.977 378.616 193.92C380.232 194.149 381.748 194.837 382.984 195.904C386.161 198.083 388.975 200.751 391.32 203.808C392.6 205.408 393.88 207.136 395.144 208.816C395.848 209.744 398.728 212.512 398.728 213.616C398.728 213.408 398.728 213.2 398.728 212.992C398.726 204.704 397.091 196.497 393.917 188.84C390.743 181.184 386.091 174.228 380.228 168.37C374.365 162.511 367.406 157.865 359.747 154.697C352.088 151.528 343.88 149.9 335.592 149.904Z" fill="white"/>
<path d="M309.832 270.608C310.136 267.2 308.664 263.152 303.8 256.704C301.256 253.312 298.6 250.016 295.912 246.736C293.816 244.176 290.024 241.136 290.072 237.568C290.072 235.184 291.88 233.216 293.72 231.696C295.305 230.395 297.015 229.253 298.824 228.288C300.296 227.488 302.024 226.48 302.024 224.8C302.024 223.12 300.552 222.176 299.224 221.392C294.136 218.416 288.968 215.584 283.72 212.896C281.448 211.728 278.456 210.816 276.552 209.088C275.208 207.888 274.392 206.192 272.984 205.008C272.52 207.648 272.327 210.328 272.408 213.008C272.418 225.197 275.958 237.123 282.599 247.344C289.24 257.566 298.698 265.646 309.832 270.608Z" fill="white"/>
<path d="M310.2 232.832C309.413 233.423 308.584 233.958 307.72 234.432C305.864 235.456 303.672 236.56 303.192 238.64C302.536 241.424 305.336 243.696 307.784 245.184L315.4 249.84C316.666 250.526 317.825 251.394 318.84 252.416C319.809 253.603 320.571 254.944 321.096 256.384C322.645 260.081 323.949 263.875 325 267.744C325.384 269.168 326.184 275.504 328.36 275.744C330.766 276.025 333.186 276.169 335.608 276.176C338.224 276.173 340.837 276.007 343.432 275.68C342.152 275.76 339.224 268.064 338.824 266.912C336.88 261.901 335.318 256.75 334.152 251.504C333.208 246.368 326.808 243.792 322.776 240.976C322.161 240.637 321.664 240.117 321.352 239.488C321.244 239.082 321.22 238.659 321.281 238.244C321.341 237.828 321.485 237.43 321.704 237.072C323.002 234.773 324.422 232.545 325.96 230.4C327.513 228.222 328.151 225.522 327.736 222.88C326.923 220.547 325.464 218.494 323.528 216.96C310.04 203.984 295.8 191.584 283 178.08C280.282 182.164 278.048 186.551 276.344 191.152C275.896 192.4 283.256 198.32 284.216 199.152C288.552 202.608 293.432 205.424 297.768 208.944L309.896 218.768C311.845 220.049 313.362 221.89 314.248 224.048C314.498 225.132 314.502 226.258 314.258 227.344C314.014 228.43 313.53 229.446 312.84 230.32C312.088 231.282 311.199 232.128 310.2 232.832Z" fill="white"/>
</g>
<path opacity="0.1" d="M397.992 222.48C393.4 245.808 351.256 267.2 317.544 252.8C281.688 237.456 274.936 188.96 292.488 166.992C285.139 173.868 279.542 182.402 276.163 191.882C272.784 201.361 271.721 211.512 273.063 221.486C274.405 231.46 278.114 240.969 283.879 249.218C289.644 257.467 297.298 264.218 306.203 268.907C315.108 273.595 325.005 276.086 335.069 276.172C345.133 276.257 355.071 273.934 364.054 269.396C373.037 264.859 380.805 258.239 386.708 250.088C392.612 241.938 396.481 232.494 397.992 222.544V222.48Z" fill="black"/>
<path opacity="0.6" d="M373.03 187.679C375.383 173.183 365.539 159.523 351.042 157.17C336.545 154.817 322.886 164.661 320.533 179.158C318.18 193.654 328.024 207.314 342.521 209.667C357.017 212.02 370.677 202.176 373.03 187.679Z" fill="white"/>
<path opacity="0.6" d="M380.168 224.144C386.893 224.144 392.344 218.692 392.344 211.968C392.344 205.243 386.893 199.792 380.168 199.792C373.443 199.792 367.992 205.243 367.992 211.968C367.992 218.692 373.443 224.144 380.168 224.144Z" fill="white"/>
<path opacity="0.1" d="M272.488 213.008C272.493 226.737 276.973 240.09 285.251 251.043C293.528 261.996 305.151 269.951 318.358 273.703C331.564 277.455 345.634 276.799 358.434 271.835C371.233 266.87 382.066 257.867 389.288 246.192C387.864 248.416 370.008 276.496 325.896 268.416C279.96 260 272.488 213.024 273.272 203.104C272.751 206.379 272.489 209.691 272.488 213.008Z" fill="black"/>
<path d="M794.159 381.213C810.134 347.93 796.103 307.997 762.819 292.022C729.536 276.046 689.603 290.077 673.628 323.361C657.652 356.645 671.683 396.577 704.967 412.553C738.251 428.528 778.183 414.497 794.159 381.213Z" fill="#285CBA"/>
<path opacity="0.116667" d="M783.593 372.409C796.552 342.392 782.723 307.553 752.705 294.594C722.688 281.635 687.849 295.464 674.89 325.482C661.931 355.499 675.76 390.339 705.778 403.297C735.795 416.256 770.634 402.427 783.593 372.409Z" fill="white"/>
<path opacity="0.233333" d="M771.391 367.666C783.463 341.871 772.339 311.174 746.544 299.102C720.749 287.029 690.051 298.154 677.979 323.949C665.907 349.744 677.031 380.441 702.826 392.514C728.621 404.586 759.319 393.461 771.391 367.666Z" fill="white"/>
<path opacity="0.35" d="M760.669 359.187C769.889 336.751 759.176 311.089 736.74 301.869C714.304 292.649 688.642 303.363 679.422 325.799C670.202 348.235 680.916 373.897 703.352 383.116C725.787 392.336 751.449 381.623 760.669 359.187Z" fill="white"/>
<path opacity="0.466667" d="M749.05 352.946C756.602 334.392 747.684 313.228 729.13 305.675C710.576 298.123 689.412 307.041 681.859 325.595C674.306 344.149 683.225 365.313 701.779 372.866C720.333 380.419 741.497 371.5 749.05 352.946Z" fill="white"/>
<path opacity="0.583333" d="M722.132 362.351C736.673 356.127 743.416 339.294 737.193 324.752C730.969 310.21 714.136 303.467 699.594 309.691C685.052 315.914 678.309 332.748 684.533 347.289C690.756 361.831 707.59 368.574 722.132 362.351Z" fill="white"/>
<path opacity="0.7" d="M721.108 347.634C729.306 339.436 729.306 326.144 721.108 317.946C712.91 309.749 699.619 309.749 691.421 317.946C683.223 326.144 683.223 339.436 691.421 347.634C699.619 355.832 712.91 355.832 721.108 347.634Z" fill="white"/>
<path opacity="0.05" d="M795.928 377.104C792.664 385.253 787.827 392.68 781.692 398.96C775.558 405.24 768.247 410.25 760.177 413.704C752.106 417.159 743.434 418.99 734.656 419.093C725.878 419.195 717.165 417.568 709.016 414.304C707.928 413.872 706.872 413.408 705.816 412.928C721.087 413.019 735.93 407.88 747.875 398.365C759.82 388.85 768.148 375.533 771.474 360.628C774.8 345.723 772.924 330.129 766.157 316.438C759.391 302.748 748.141 291.786 734.28 285.376C745.169 285.459 755.872 288.197 765.463 293.354C775.053 298.511 783.24 305.931 789.312 314.969C795.385 324.007 799.16 334.391 800.311 345.219C801.461 356.047 799.951 366.992 795.912 377.104H795.928Z" fill="#455A64"/>
<path opacity="0.1" d="M774.2 305.136C784.097 313.825 790.975 325.436 793.841 338.29C796.706 351.145 795.41 364.578 790.14 376.648C784.87 388.717 775.899 398.799 764.524 405.436C753.148 412.072 739.957 414.92 726.856 413.568C739.263 411.688 750.875 406.304 760.325 398.049C769.776 389.793 776.672 379.01 780.202 366.969C783.731 354.927 783.748 342.127 780.25 330.076C776.752 318.025 769.885 307.224 760.456 298.944C757.763 296.583 754.885 294.443 751.848 292.544C760.098 295.131 767.712 299.421 774.2 305.136Z" fill="#455A64"/>
<path opacity="0.5" d="M724.965 385.505C729.707 374.925 724.974 362.505 714.394 357.764C703.814 353.022 691.394 357.755 686.653 368.335C681.911 378.915 686.644 391.335 697.224 396.076C707.804 400.818 720.224 396.085 724.965 385.505Z" fill="white"/>
<path opacity="0.5" d="M732.591 329.954C739.743 320.829 738.144 307.634 729.019 300.482C719.895 293.33 706.7 294.929 699.548 304.054C692.396 313.179 693.995 326.374 703.12 333.526C712.244 340.678 725.439 339.079 732.591 329.954Z" fill="white"/>
<path opacity="0.5" d="M679.576 350.944C677.675 350.183 676.042 348.875 674.885 347.186C673.727 345.498 673.096 343.503 673.072 341.456C673.047 339.408 673.631 337.4 674.748 335.684C675.866 333.968 677.467 332.622 679.349 331.816C681.232 331.01 683.311 330.781 685.323 331.157C687.336 331.533 689.192 332.497 690.657 333.928C692.122 335.359 693.129 337.192 693.552 339.196C693.975 341.199 693.794 343.283 693.032 345.184C692.011 347.732 690.02 349.77 687.497 350.85C684.973 351.93 682.124 351.964 679.576 350.944Z" fill="white"/>
<g opacity="0.1">
<path d="M867.336 288.208C865.128 284.304 859.496 277.776 846.536 277.776C833.064 277.776 811.016 284.592 780.936 298.048L777.304 299.648L775.896 300.256C776.36 300.624 776.824 300.992 777.272 301.408L777.944 301.12L781.592 299.52C811.432 286.16 833.272 279.392 846.504 279.392C858.632 279.392 863.864 285.424 865.896 288.992C874.856 304.8 857.608 325.904 808.296 359.568C805.405 361.552 802.445 363.531 799.416 365.504C786.264 374.144 772.056 382.8 757.064 391.28C741.688 400 726.088 408.176 711.4 415.2C708.12 416.8 704.888 418.288 701.72 419.728C669.832 434.32 646.632 441.712 632.728 441.712C620.584 441.712 615.368 435.68 613.336 432.112C604.696 416.864 619.416 397.792 664.12 366.304L667.4 364L667.992 363.568C667.88 362.992 667.8 362.416 667.72 361.824L666.472 362.704L663.272 365.008C617.72 397.008 602.872 416.752 612.072 432.896C614.264 436.8 619.912 443.328 632.872 443.328C647 443.328 670.44 435.888 702.536 421.2C706.184 419.6 709.912 417.776 713.736 415.952C728.008 409.072 743.128 401.136 758.04 392.688C772.552 384.464 786.312 376.112 799.112 367.744C802.621 365.451 806.045 363.168 809.384 360.896C859.416 326.64 876.792 304.896 867.336 288.208Z" fill="white"/>
</g>
<g opacity="0.1">
<path d="M805.576 355.6C803.864 356.768 802.136 357.92 800.392 359.088C786.328 368.464 771 377.888 754.68 387.2C738.024 396.624 721.08 405.424 705.4 412.8C703.48 413.712 701.576 414.592 699.704 415.456C678.216 425.28 649.16 436.992 632.712 436.992C623.496 436.992 619.352 433.088 617.496 429.808C610.568 417.568 625.8 399.216 666.872 370.304L669.064 368.704C669.192 369.248 669.352 369.792 669.512 370.304L667.8 371.52C627.544 399.872 612.456 417.584 618.888 428.944C620.488 431.84 624.264 435.344 632.712 435.344C648.872 435.344 677.704 423.712 699.048 413.952L703.56 411.856C719.56 404.368 736.856 395.408 753.896 385.76C770.568 376.304 786.248 366.672 800.568 357.088C801.96 356.176 803.32 355.248 804.68 354.32C863.448 314.32 864.616 299.68 860.376 292.192C858.776 289.296 855 285.792 846.552 285.792C831.192 285.792 804.2 296.432 784.264 305.36L782.36 306.224C781.96 305.808 781.576 305.392 781.16 304.992L783.608 303.904C803.688 294.912 830.92 284.192 846.552 284.192C855.768 284.192 859.912 288.096 861.768 291.376C866.312 299.392 865.4 314.784 805.576 355.6Z" fill="white"/>
</g>
<g opacity="0.2">
<path d="M802.872 351.632L800.728 353.088C785.944 363.072 769.672 373.104 752.312 382.928C734.568 392.976 716.568 402.288 700.056 409.936L697.72 411.008C667.96 424.608 644.92 432.112 632.712 432.112C627.176 432.112 623.448 430.512 621.672 427.312C616.376 417.968 632.072 400.56 669.672 374.096L670.536 373.488C670.712 374.016 670.888 374.528 671.096 375.088L670.584 375.44C625.4 407.264 619.8 420.8 623.064 426.576C624.536 429.184 627.784 430.512 632.664 430.512C644.6 430.512 667.448 423.072 697 409.552L698.36 408.928C715.096 401.216 733.448 391.776 751.48 381.536C769.08 371.52 785.688 361.312 800.68 351.136L801.928 350.288C841.848 323.088 861.128 303.248 856.152 294.496C854.68 291.888 851.432 290.56 846.552 290.56C835.224 290.56 813.8 297.36 786.216 309.76L785.672 310L784.616 308.736L785.576 308.304C813.352 295.856 835.016 289.008 846.552 289.008C852.088 289.008 855.816 290.608 857.592 293.808C863.176 303.584 844.776 323.072 802.872 351.632Z" fill="white"/>
</g>
<g opacity="0.3">
<path d="M816.76 314.176L816.44 315.056C815.8 316.8 812.728 322.048 798.024 333.488L797.24 334.096C780.349 346.766 762.618 358.275 744.168 368.544C722.696 380.704 701.88 390.832 685.528 397.056L684.568 397.424C674.696 401.12 666.968 403.168 662.728 403.168C662.192 403.173 661.656 403.13 661.128 403.04L660.216 402.848L660.536 401.968C661.112 400.368 663.736 395.776 676.072 385.808C676.328 386.288 676.6 386.752 676.888 387.216C666.968 395.216 663.624 399.616 662.488 401.616H662.712C666.712 401.616 674.024 399.696 683.416 396.192L685.016 395.616C701.288 389.408 722.04 379.312 743.432 367.2C761.802 356.943 779.453 345.45 796.264 332.8L797.528 331.824C809.432 322.496 813.256 317.552 814.472 315.44H814.2C810.152 315.44 802.632 317.44 792.968 321.072C792.728 320.592 792.472 320.112 792.2 319.648C802.12 315.904 809.928 313.84 814.2 313.84C814.736 313.834 815.272 313.877 815.8 313.968L816.76 314.176Z" fill="white"/>
</g>
<path d="M854.2 295.696C858.376 303.088 836.344 324.016 800.696 348.32C785.976 358.368 768.92 368.976 750.424 379.456C731.224 390.304 712.776 399.76 696.136 407.36C657.832 424.88 629.352 432.672 625.224 425.392C621.32 418.48 640.36 399.712 672.024 377.392C672.904 379.536 673.88 381.632 674.968 383.68C662.968 393.28 656.536 400.768 658.328 403.952C660.12 407.136 670.824 405.248 686.456 399.296C706.76 391.151 726.458 381.569 745.4 370.624C763.934 360.302 781.745 348.734 798.712 336C812.856 325.072 820.68 316.528 818.728 313.072C816.776 309.616 806.44 311.728 791.032 317.568C789.848 315.616 788.568 313.728 787.208 311.92C823.48 295.68 850.136 288.672 854.2 295.696Z" fill="url(#paint0_linear_94_152)"/>
<path d="M513.24 395.2C513.101 392.656 512.365 390.181 511.092 387.974C509.819 385.767 508.044 383.89 505.912 382.496C505.242 382.043 504.48 381.743 503.681 381.619C502.881 381.494 502.064 381.548 501.288 381.776L469.544 394.128L485.08 420.8L511.576 399.552C512.156 398.994 512.607 398.314 512.894 397.562C513.182 396.81 513.3 396.003 513.24 395.2Z" fill="#F5F5F5"/>
<path d="M495.656 383.856C496.474 383.67 497.321 383.652 498.146 383.803C498.971 383.955 499.757 384.272 500.456 384.736C502.812 386.276 504.772 388.348 506.178 390.786C507.585 393.224 508.398 395.958 508.552 398.768C508.595 399.589 508.476 400.409 508.202 401.184C507.927 401.958 507.503 402.67 506.952 403.28L509.528 401.2L511.592 399.488C512.161 398.936 512.603 398.266 512.888 397.525C513.172 396.785 513.293 395.992 513.24 395.2C513.101 392.656 512.365 390.181 511.092 387.974C509.819 385.767 508.044 383.89 505.912 382.496C505.242 382.043 504.48 381.743 503.681 381.619C502.881 381.494 502.064 381.548 501.288 381.776L498.6 382.784L495.656 383.856Z" fill="#285CBA"/>
<path opacity="0.1" d="M512.584 391.28L479.144 410.576L485.08 420.8L511.576 399.552C512.157 398.994 512.607 398.315 512.894 397.562C513.182 396.81 513.3 396.003 513.24 395.2C513.227 393.867 513.005 392.545 512.584 391.28Z" fill="#455A64"/>
<path d="M476.6 395.2C479.799 397.288 482.461 400.099 484.37 403.407C486.28 406.715 487.384 410.426 487.592 414.24C487.592 421.248 482.664 424.08 476.6 420.64C473.401 418.553 470.739 415.741 468.83 412.433C466.92 409.125 465.816 405.414 465.608 401.6C465.608 394.464 470.536 391.632 476.6 395.2Z" fill="#E0E0E0"/>
<path d="M503.32 365.216C503.179 362.675 502.443 360.202 501.17 357.998C499.897 355.793 498.123 353.92 495.992 352.528C495.323 352.071 494.561 351.77 493.761 351.645C492.961 351.521 492.144 351.576 491.368 351.808L459.624 364.16L475.192 390.928L501.656 369.6C502.239 369.037 502.691 368.352 502.978 367.594C503.266 366.836 503.383 366.024 503.32 365.216Z" fill="#F5F5F5"/>
<path d="M485.736 353.952C486.541 353.771 487.375 353.755 488.187 353.906C488.998 354.058 489.77 354.373 490.456 354.832C492.815 356.366 494.779 358.434 496.189 360.869C497.599 363.305 498.414 366.038 498.568 368.848C498.613 369.669 498.495 370.49 498.22 371.264C497.946 372.039 497.52 372.751 496.968 373.36L499.544 371.296L501.608 369.584C502.177 369.017 502.616 368.332 502.892 367.577C503.169 366.823 503.276 366.017 503.208 365.216C503.068 362.675 502.331 360.202 501.058 357.998C499.785 355.793 498.011 353.92 495.88 352.528C495.211 352.071 494.449 351.77 493.649 351.645C492.85 351.521 492.032 351.576 491.256 351.808L488.568 352.8L485.736 353.952Z" fill="#285CBA"/>
<path opacity="0.1" d="M502.648 361.36L469.224 380.672L475.16 390.88L501.656 369.6C502.225 369.033 502.664 368.348 502.94 367.594C503.217 366.839 503.324 366.033 503.256 365.232C503.251 363.918 503.046 362.613 502.648 361.36Z" fill="#455A64"/>
<path d="M474.443 391.355C478.737 388.876 478.739 380.843 474.449 373.412C470.159 365.981 463.201 361.967 458.907 364.446C454.614 366.924 454.612 374.957 458.902 382.388C463.192 389.819 470.15 393.833 474.443 391.355Z" fill="#E0E0E0"/>
<path d="M309.176 461.264L345.016 419.872L353.976 352.608L371.896 342.256L443.592 383.664L309.176 461.264Z" fill="#285CBA"/>
<path opacity="0.6" d="M309.176 461.264L345.016 419.872L353.976 352.608L371.896 342.256L443.592 383.664L309.176 461.264Z" fill="white"/>
<path d="M371.896 342.256L353.976 352.608L425.672 394L443.592 383.664L371.896 342.256Z" fill="#285CBA"/>
<path opacity="0.3" d="M371.896 342.256L353.976 352.608L425.672 394L443.592 383.664L371.896 342.256Z" fill="#455A64"/>
<path d="M470.488 357.664C464.216 354.048 458.408 352.992 453.64 354.144C452.435 354.419 451.277 354.866 450.2 355.472L449.496 355.856L341.832 418.032C324.155 428.243 309.109 442.445 297.896 459.504L263.272 512.144L270.2 521.872L323.4 513.328C339.969 510.681 355.912 505.019 370.44 496.624L491.48 426.752C495.72 424.128 498.568 419.184 499.384 412.352C499.54 410.96 499.62 409.561 499.624 408.16C499.608 389.552 486.568 366.96 470.488 357.664Z" fill="#285CBA"/>
<path opacity="0.9" d="M470.488 357.664C464.216 354.048 458.408 352.992 453.64 354.144C452.435 354.419 451.277 354.866 450.2 355.472L449.496 355.856L341.832 418.032C324.155 428.243 309.109 442.445 297.896 459.504L263.272 512.144L270.2 521.872L323.4 513.328C339.969 510.681 355.912 505.019 370.44 496.624L491.48 426.752C495.72 424.128 498.568 419.184 499.384 412.352C499.54 410.96 499.62 409.561 499.624 408.16C499.608 389.552 486.568 366.96 470.488 357.664Z" fill="white"/>
<path d="M477.624 434.704C481.864 432.08 484.712 427.136 485.528 420.304C485.684 418.912 485.764 417.513 485.768 416.112C485.768 397.536 472.728 374.944 456.648 365.664C450.376 362.032 444.584 360.976 439.816 362.128C438.61 362.4 437.451 362.847 436.376 363.456L450.2 355.456C451.277 354.85 452.435 354.403 453.64 354.128C458.44 352.976 464.216 354.032 470.488 357.648C486.488 366.944 499.608 389.536 499.608 408.112C499.604 409.513 499.524 410.912 499.368 412.304C498.552 419.168 495.704 424.112 491.464 426.704L477.624 434.704Z" fill="#285CBA"/>
<path d="M274.056 502.736C272.894 501.993 271.53 501.63 270.152 501.696L266.248 507.632L263.272 512.16C262.642 513.124 262.283 514.239 262.233 515.39C262.184 516.54 262.446 517.682 262.991 518.696C263.537 519.71 264.346 520.558 265.333 521.151C266.32 521.744 267.449 522.059 268.6 522.064C269.141 522.056 269.678 521.981 270.2 521.84L274.744 521.12L280.872 520.128C281.42 519.311 281.755 518.371 281.848 517.392C281.848 517.04 281.848 516.656 281.848 516.256C281.702 513.549 280.92 510.914 279.567 508.566C278.213 506.217 276.325 504.22 274.056 502.736Z" fill="#285CBA"/>
<path opacity="0.6" d="M345.016 445.744C360.744 436.448 436.744 392.656 481.72 366.768C478.447 363.208 474.674 360.141 470.52 357.664C464.248 354.048 458.44 352.992 453.672 354.144C452.467 354.419 451.309 354.866 450.232 355.472L449.528 355.856L341.864 418.032C324.187 428.243 309.141 442.445 297.928 459.504L264.488 510.288L263.272 512.16C262.575 513.208 262.202 514.438 262.2 515.696C262.194 517.249 262.764 518.748 263.8 519.904C260.6 513.008 289.032 494.48 304.776 479.616C320.52 464.752 336.168 450.976 345.016 445.744Z" fill="white"/>
<path d="M329.288 481.392C324.776 472.112 317.96 464.352 310.584 460.112C307.322 458.111 303.607 456.966 299.784 456.784C299.16 457.696 298.504 458.576 297.896 459.504L283.496 481.392L285.24 481.232C285.458 481.216 285.678 481.216 285.896 481.232C287.983 481.322 290.011 481.951 291.784 483.056C296.322 485.939 300.02 489.968 302.504 494.736L303.528 496.592L330.248 483.392L329.288 481.392Z" fill="#285CBA"/>
<path d="M309.48 462.016C306.144 459.889 302.232 458.844 298.28 459.024L285.032 479.04C287.798 478.901 290.539 479.628 292.872 481.12C297.772 484.195 301.765 488.519 304.44 493.648L327.304 482.352C323.176 473.856 316.728 466.192 309.48 462.016Z" fill="#455A64"/>
<path opacity="0.1" d="M309.48 462.016C306.144 459.889 302.232 458.844 298.28 459.024L285.032 479.04C285.985 478.967 286.943 479.026 287.88 479.216C289.688 477.2 291.512 473.968 294.632 474.544C298.248 475.216 301.032 478.864 303.976 480.72C304.741 481.246 305.606 481.608 306.517 481.784C307.428 481.96 308.366 481.947 309.272 481.744C310.829 481.074 312.233 480.094 313.4 478.864C313.986 478.256 314.707 477.793 315.505 477.516C316.303 477.238 317.155 477.151 317.992 477.264C319.784 477.744 320.488 479.472 321.192 480.992C321.817 482.166 322.352 483.386 322.792 484.64L327.368 482.368C323.176 473.856 316.728 466.192 309.48 462.016Z" fill="white"/>
<path opacity="0.05" d="M298.152 470.4L298.264 470.48C299.721 471.451 301.233 472.338 302.792 473.136C304.088 473.808 305.816 474.368 306.904 473.392C307.992 472.416 307.752 470.528 308.904 469.728C309.389 469.446 309.944 469.307 310.504 469.328C313.116 469.361 315.684 470.007 318.002 471.213C320.319 472.419 322.322 474.152 323.848 476.272C320.211 470.465 315.283 465.575 309.448 461.984C306.112 459.857 302.2 458.812 298.248 458.992L290.504 470.736C293.304 468.672 295.288 468.576 298.152 470.4Z" fill="white"/>
<path opacity="0.15" d="M499.368 412.32C499.524 410.928 499.604 409.529 499.608 408.128C499.588 406.486 499.481 404.847 499.288 403.216C461.896 424.72 370.664 477.216 353.976 487.136C332.872 499.68 280.936 517.536 267.576 518.176C264.376 518.352 263.256 515.904 263.336 512.08V512.16C262.708 513.119 262.35 514.229 262.298 515.374C262.246 516.519 262.502 517.657 263.04 518.669C263.578 519.681 264.377 520.53 265.355 521.127C266.334 521.724 267.454 522.048 268.6 522.064C269.141 522.056 269.678 521.981 270.2 521.84L323.4 513.296C339.969 510.648 355.912 504.987 370.44 496.592L491.48 426.72C495.704 424.128 498.552 419.2 499.368 412.32Z" fill="#285CBA"/>
<path opacity="0.6" d="M270.2 521.84L274.744 521.12L280.872 520.128C281.42 519.312 281.755 518.371 281.848 517.392C281.848 517.04 281.848 516.656 281.848 516.256C281.848 515.856 281.848 515.616 281.848 515.296C277.193 516.681 272.421 517.639 267.592 518.16C264.392 518.336 263.272 515.888 263.352 512.064V512.144C262.721 513.102 262.359 514.213 262.304 515.358C262.249 516.504 262.503 517.644 263.039 518.658C263.576 519.672 264.375 520.523 265.353 521.123C266.332 521.722 267.453 522.047 268.6 522.064C269.091 522.059 269.58 521.994 270.056 521.872L270.2 521.84Z" fill="#455A64"/>
<path d="M560.104 450.928L488.408 409.52L353.976 487.136L425.672 471.616L542.184 466.448L560.104 456.096V450.928Z" fill="#285CBA"/>
<path opacity="0.6" d="M560.104 450.928L488.408 409.52L353.976 487.136L425.672 471.616L542.184 466.448L560.104 456.096V450.928Z" fill="white"/>
<path d="M425.672 471.616V466.448L353.976 487.136L425.672 471.616Z" fill="#285CBA"/>
<path d="M425.672 466.448L542.184 461.264V466.448L425.672 471.616V466.448Z" fill="#285CBA"/>
<path opacity="0.3" d="M425.672 466.448L542.184 461.264V466.448L425.672 471.616V466.448Z" fill="white"/>
<path d="M470.488 419.872L542.184 461.264L560.104 450.928L488.408 409.52L470.488 419.872Z" fill="#285CBA"/>
<path opacity="0.3" d="M470.488 419.872L542.184 461.264L560.104 450.928L488.408 409.52L470.488 419.872Z" fill="#455A64"/>
<path d="M560.104 450.928L542.184 461.264V466.448L560.104 456.096V450.928Z" fill="#285CBA"/>
<path opacity="0.5" d="M560.104 450.928L542.184 461.264V466.448L560.104 456.096V450.928Z" fill="#455A64"/>
<path d="M483.944 293.136L474.984 298.32L430.168 375.92L434.632 378.48L470.584 357.728L488.408 295.696L483.944 293.136Z" fill="#285CBA"/>
<path d="M434.632 378.48L470.584 357.728L488.408 295.696L479.448 300.864L434.632 378.48Z" fill="#285CBA"/>
<path opacity="0.5" d="M474.984 298.32L479.448 300.864L488.408 295.696L483.944 293.136L474.984 298.32Z" fill="white"/>
<path opacity="0.6" d="M479.448 300.864L434.632 378.48L470.584 357.728L488.408 295.696L479.448 300.864Z" fill="#455A64"/>
<path opacity="0.8" d="M499 361.232C495.432 355.056 493.496 343.632 504.072 336.656C514.648 329.68 523.064 333.584 523.064 333.584C523.064 333.584 519.08 336.784 519.192 339.856C519.192 339.856 530.664 329.776 539.272 334.032C539.272 334.032 532.232 337.488 533.24 340.576C534.248 343.664 546.472 338.016 550.712 332.336C550.712 332.336 551.32 337.312 546.344 343.44C541.368 349.568 530.744 354.464 530.744 354.464C532.027 354.988 533.411 355.219 534.794 355.141C536.178 355.064 537.527 354.68 538.744 354.016C538.744 354.016 532.072 364.432 522.824 368.896C518.632 370.946 513.81 371.293 509.368 369.864C504.926 368.435 501.21 365.342 499 361.232Z" fill="#285CBA"/>
<path opacity="0.8" d="M504.248 358.144C500.968 352.464 506.52 343.968 517.528 344.96C517.528 344.96 512.456 348.336 514.008 351.232C515.56 354.128 525.88 348.576 527.96 346.912C527.96 346.912 524.488 355.792 517.672 359.712C512.792 362.544 507.32 363.488 504.248 358.144Z" fill="white"/>
<path opacity="0.8" d="M508.168 389.728C511.736 395.904 520.632 403.296 531.992 397.616C543.352 391.936 544.136 382.704 544.136 382.704C544.136 382.704 539.336 384.528 536.776 382.928C536.776 382.928 551.176 378.032 551.848 368.448C551.848 368.448 545.352 372.816 543.16 370.4C540.968 367.984 552.008 360.224 559.048 359.392C559.048 359.392 555.048 356.384 547.24 357.616C539.432 358.848 529.48 367.312 529.48 367.312C529.356 365.869 529.542 364.416 530.025 363.05C530.507 361.684 531.276 360.437 532.28 359.392C525.581 359.621 519.064 361.631 513.4 365.216C509.523 367.829 506.811 371.844 505.835 376.416C504.859 380.988 505.695 385.76 508.168 389.728Z" fill="#285CBA"/>
<path opacity="0.8" d="M513.4 386.768C516.68 392.432 526.808 391.872 531.448 381.84C531.448 381.84 525.992 384.56 524.264 381.744C522.536 378.928 532.504 372.8 534.984 371.84C534.984 371.84 525.544 370.4 518.744 374.336C513.896 377.152 510.36 381.424 513.4 386.768Z" fill="white"/>
<path opacity="0.5" d="M690.616 490.864C687.961 490.864 685.366 490.077 683.158 488.602C680.95 487.127 679.23 485.03 678.214 482.577C677.198 480.124 676.932 477.425 677.45 474.821C677.968 472.217 679.246 469.825 681.124 467.948C683.001 466.071 685.393 464.792 687.997 464.274C690.601 463.756 693.3 464.022 695.753 465.038C698.206 466.054 700.303 467.775 701.778 469.982C703.253 472.19 704.04 474.785 704.04 477.44C704.04 481 702.626 484.415 700.108 486.932C697.591 489.45 694.176 490.864 690.616 490.864ZM690.616 465.104C688.176 465.104 685.791 465.828 683.763 467.183C681.734 468.539 680.153 470.465 679.219 472.719C678.285 474.973 678.041 477.454 678.517 479.847C678.993 482.24 680.168 484.438 681.893 486.163C683.618 487.888 685.816 489.063 688.209 489.539C690.602 490.015 693.083 489.771 695.337 488.837C697.591 487.903 699.518 486.322 700.873 484.294C702.229 482.265 702.952 479.88 702.952 477.44C702.948 474.17 701.647 471.034 699.334 468.722C697.022 466.409 693.886 465.108 690.616 465.104Z" fill="#285CBA"/>
<path d="M694.392 477.44C694.392 478.187 694.17 478.917 693.756 479.538C693.341 480.159 692.751 480.643 692.061 480.929C691.371 481.214 690.612 481.289 689.879 481.144C689.147 480.998 688.474 480.638 687.946 480.11C687.418 479.582 687.058 478.909 686.913 478.177C686.767 477.444 686.842 476.685 687.127 475.995C687.413 475.305 687.897 474.715 688.518 474.3C689.139 473.886 689.869 473.664 690.616 473.664C691.617 473.664 692.578 474.062 693.286 474.77C693.994 475.478 694.392 476.439 694.392 477.44Z" fill="white"/>
<path opacity="0.5" d="M520.52 249.6C516.336 249.6 512.246 248.359 508.767 246.034C505.288 243.709 502.577 240.405 500.976 236.539C499.376 232.673 498.958 228.419 499.776 224.315C500.593 220.212 502.609 216.443 505.569 213.486C508.529 210.528 512.299 208.515 516.403 207.7C520.507 206.886 524.761 207.307 528.626 208.911C532.49 210.514 535.793 213.228 538.115 216.708C540.437 220.189 541.675 224.28 541.672 228.464C541.663 234.07 539.432 239.443 535.466 243.406C531.501 247.368 526.126 249.596 520.52 249.6ZM520.52 208.4C516.55 208.403 512.669 209.584 509.371 211.794C506.072 214.003 503.503 217.141 501.989 220.812C500.474 224.482 500.083 228.519 500.864 232.412C501.645 236.304 503.564 239.878 506.377 242.68C509.19 245.481 512.771 247.386 516.667 248.151C520.563 248.917 524.598 248.51 528.262 246.981C531.926 245.452 535.055 242.87 537.251 239.563C539.447 236.255 540.613 232.37 540.6 228.4C540.596 223.077 538.478 217.974 534.713 214.212C530.948 210.449 525.843 208.336 520.52 208.336V208.4Z" fill="#285CBA"/>
<path d="M526.568 228.4C526.568 229.596 526.213 230.766 525.549 231.76C524.884 232.755 523.94 233.53 522.834 233.988C521.729 234.445 520.513 234.565 519.34 234.332C518.167 234.098 517.089 233.522 516.243 232.677C515.398 231.831 514.822 230.753 514.588 229.58C514.355 228.407 514.475 227.191 514.932 226.086C515.39 224.98 516.165 224.036 517.16 223.371C518.154 222.707 519.324 222.352 520.52 222.352C521.315 222.35 522.102 222.505 522.837 222.808C523.572 223.111 524.239 223.557 524.801 224.119C525.363 224.681 525.809 225.348 526.112 226.083C526.415 226.818 526.57 227.605 526.568 228.4Z" fill="white"/>
<path opacity="0.5" d="M689.736 167.616C687.081 167.616 684.486 166.829 682.278 165.354C680.07 163.879 678.35 161.782 677.334 159.329C676.318 156.876 676.052 154.177 676.57 151.573C677.088 148.969 678.366 146.577 680.244 144.7C682.121 142.822 684.513 141.544 687.117 141.026C689.721 140.508 692.42 140.774 694.873 141.79C697.326 142.806 699.423 144.527 700.898 146.734C702.373 148.942 703.16 151.537 703.16 154.192C703.156 157.751 701.74 161.163 699.223 163.68C696.707 166.196 693.295 167.612 689.736 167.616ZM689.736 141.856C687.296 141.856 684.911 142.58 682.882 143.935C680.854 145.291 679.273 147.217 678.339 149.471C677.405 151.725 677.161 154.206 677.637 156.599C678.113 158.992 679.288 161.19 681.013 162.915C682.738 164.64 684.936 165.815 687.329 166.291C689.722 166.767 692.203 166.523 694.457 165.589C696.711 164.655 698.637 163.074 699.993 161.046C701.348 159.017 702.072 156.632 702.072 154.192C702.068 150.922 700.767 147.786 698.454 145.474C696.142 143.161 693.006 141.86 689.736 141.856Z" fill="#285CBA"/>
<path d="M693.528 154.192C693.531 154.943 693.311 155.677 692.897 156.303C692.482 156.929 691.891 157.417 691.198 157.707C690.506 157.996 689.743 158.074 689.006 157.929C688.269 157.785 687.592 157.425 687.06 156.895C686.528 156.365 686.166 155.69 686.018 154.954C685.87 154.218 685.945 153.454 686.231 152.761C686.518 152.067 687.004 151.474 687.628 151.056C688.252 150.639 688.985 150.416 689.736 150.416C690.233 150.414 690.726 150.51 691.186 150.699C691.646 150.888 692.064 151.165 692.416 151.516C692.769 151.867 693.048 152.284 693.239 152.743C693.43 153.203 693.528 153.695 693.528 154.192Z" fill="white"/>
<path opacity="0.5" d="M204.088 260.368C201.433 260.368 198.838 259.581 196.63 258.106C194.422 256.631 192.702 254.534 191.686 252.081C190.67 249.628 190.404 246.929 190.922 244.325C191.44 241.721 192.718 239.329 194.596 237.452C196.473 235.574 198.865 234.296 201.469 233.778C204.073 233.26 206.772 233.526 209.225 234.542C211.678 235.558 213.775 237.279 215.25 239.486C216.725 241.694 217.512 244.289 217.512 246.944C217.512 250.504 216.098 253.919 213.58 256.436C211.063 258.954 207.648 260.368 204.088 260.368ZM204.088 234.608C201.648 234.608 199.263 235.332 197.234 236.687C195.206 238.043 193.625 239.969 192.691 242.223C191.757 244.477 191.513 246.958 191.989 249.351C192.465 251.744 193.64 253.942 195.365 255.667C197.09 257.392 199.288 258.567 201.681 259.043C204.074 259.519 206.555 259.275 208.809 258.341C211.063 257.407 212.989 255.826 214.345 253.798C215.7 251.769 216.424 249.384 216.424 246.944C216.42 243.674 215.119 240.538 212.806 238.226C210.494 235.913 207.358 234.612 204.088 234.608Z" fill="#285CBA"/>
<path d="M207.8 246.944C207.806 247.695 207.588 248.431 207.174 249.057C206.761 249.684 206.169 250.173 205.476 250.461C204.783 250.75 204.019 250.826 203.283 250.678C202.547 250.531 201.871 250.167 201.343 249.634C200.814 249.101 200.456 248.422 200.315 247.685C200.174 246.947 200.256 246.184 200.551 245.494C200.846 244.803 201.34 244.216 201.97 243.808C202.6 243.399 203.337 243.188 204.088 243.2C205.074 243.213 206.016 243.612 206.71 244.313C207.404 245.013 207.796 245.958 207.8 246.944Z" fill="white"/>
<path d="M749.368 136.816C749.04 136.552 748.798 136.196 748.673 135.795C748.547 135.393 748.544 134.963 748.662 134.559C748.781 134.155 749.017 133.796 749.34 133.526C749.663 133.256 750.059 133.089 750.478 133.044C750.896 132.999 751.319 133.079 751.691 133.275C752.064 133.47 752.371 133.772 752.572 134.141C752.774 134.511 752.861 134.932 752.823 135.351C752.786 135.77 752.624 136.169 752.36 136.496C752.006 136.935 751.491 137.216 750.93 137.276C750.369 137.336 749.807 137.17 749.368 136.816Z" fill="#F0F0F0"/>
<path d="M743.064 142.944C742.936 142.843 742.829 142.717 742.75 142.574C742.671 142.432 742.621 142.274 742.603 142.112C742.585 141.95 742.6 141.786 742.646 141.629C742.692 141.472 742.769 141.327 742.872 141.2C743.079 140.945 743.378 140.782 743.704 140.746C744.031 140.71 744.358 140.804 744.616 141.008C744.867 141.217 745.028 141.516 745.064 141.841C745.1 142.166 745.008 142.493 744.808 142.752C744.707 142.88 744.581 142.987 744.438 143.066C744.295 143.145 744.138 143.195 743.976 143.213C743.814 143.231 743.65 143.216 743.493 143.17C743.336 143.124 743.191 143.047 743.064 142.944Z" fill="#FAFAFA"/>
<path d="M570.152 472.16C570.393 472.402 570.557 472.71 570.623 473.045C570.689 473.38 570.655 473.727 570.524 474.042C570.393 474.358 570.171 474.627 569.887 474.817C569.603 475.006 569.269 475.108 568.928 475.108C568.586 475.108 568.253 475.006 567.969 474.817C567.685 474.627 567.463 474.358 567.332 474.042C567.201 473.727 567.167 473.38 567.233 473.045C567.299 472.71 567.463 472.402 567.704 472.16C568.03 471.838 568.47 471.658 568.928 471.658C569.386 471.658 569.826 471.838 570.152 472.16Z" fill="#FAFAFA"/>
<path d="M586.12 479.728C586.389 479.983 586.604 480.289 586.754 480.629C586.904 480.968 586.985 481.333 586.992 481.704C587 482.074 586.934 482.443 586.798 482.788C586.662 483.132 586.458 483.447 586.2 483.712C585.814 484.114 585.318 484.392 584.774 484.511C584.23 484.63 583.663 484.586 583.144 484.383C582.626 484.18 582.179 483.828 581.86 483.371C581.542 482.914 581.366 482.374 581.355 481.817C581.344 481.26 581.498 480.713 581.798 480.244C582.098 479.774 582.53 479.405 583.04 479.181C583.55 478.958 584.115 478.89 584.663 478.988C585.211 479.085 585.718 479.343 586.12 479.728Z" fill="#FAFAFA"/>
<g opacity="0.5">
<path d="M633.96 272.672C634.277 272.546 634.624 272.516 634.958 272.587C635.292 272.657 635.597 272.825 635.836 273.069C636.075 273.313 636.236 273.623 636.299 273.958C636.362 274.293 636.324 274.64 636.19 274.954C636.057 275.268 635.833 275.535 635.548 275.723C635.262 275.91 634.928 276.008 634.587 276.005C634.245 276.003 633.913 275.899 633.63 275.707C633.348 275.516 633.128 275.245 633 274.928C632.831 274.502 632.837 274.026 633.016 273.603C633.196 273.181 633.535 272.847 633.96 272.672Z" fill="#FAFAFA"/>
<path d="M647.384 261.184C647.905 260.98 648.475 260.935 649.022 261.055C649.568 261.174 650.067 261.453 650.456 261.856C650.844 262.259 651.104 262.768 651.204 263.319C651.303 263.869 651.237 264.437 651.014 264.95C650.791 265.464 650.421 265.899 649.95 266.202C649.479 266.505 648.93 266.662 648.37 266.653C647.811 266.644 647.266 266.469 646.806 266.151C646.346 265.832 645.99 265.385 645.784 264.864C645.511 264.164 645.526 263.384 645.826 262.695C646.125 262.005 646.685 261.462 647.384 261.184Z" fill="#FAFAFA"/>
</g>
<g opacity="0.5">
<path d="M659.128 536.912C659.131 537.473 658.968 538.022 658.658 538.49C658.349 538.958 657.908 539.323 657.391 539.54C656.874 539.757 656.304 539.815 655.753 539.708C655.203 539.6 654.697 539.332 654.299 538.936C653.901 538.541 653.63 538.036 653.519 537.487C653.409 536.937 653.464 536.367 653.678 535.848C653.892 535.33 654.255 534.887 654.721 534.575C655.187 534.263 655.735 534.096 656.296 534.096C657.044 534.096 657.762 534.392 658.293 534.92C658.823 535.448 659.124 536.164 659.128 536.912Z" fill="#FAFAFA"/>
<path d="M650.696 544.624C650.699 544.961 650.602 545.291 650.417 545.572C650.232 545.854 649.967 546.073 649.656 546.204C649.346 546.334 649.003 546.369 648.673 546.304C648.343 546.239 648.039 546.077 647.801 545.839C647.563 545.601 647.401 545.297 647.336 544.967C647.271 544.636 647.306 544.294 647.436 543.984C647.566 543.673 647.786 543.408 648.068 543.223C648.349 543.038 648.679 542.941 649.016 542.944C649.24 542.933 649.463 542.968 649.672 543.048C649.881 543.129 650.071 543.252 650.229 543.411C650.388 543.569 650.511 543.759 650.591 543.968C650.672 544.177 650.707 544.4 650.696 544.624Z" fill="#FAFAFA"/>
<path d="M645.912 534.096C645.925 534.369 645.855 534.64 645.711 534.873C645.567 535.106 645.357 535.29 645.107 535.402C644.857 535.513 644.579 535.546 644.31 535.497C644.04 535.448 643.792 535.319 643.598 535.127C643.403 534.935 643.271 534.688 643.218 534.419C643.166 534.151 643.196 533.873 643.304 533.621C643.413 533.37 643.594 533.157 643.825 533.011C644.056 532.864 644.326 532.791 644.6 532.8C644.941 532.812 645.266 532.952 645.509 533.192C645.752 533.432 645.896 533.755 645.912 534.096Z" fill="#FAFAFA"/>
</g>
<g opacity="0.5">
<path d="M232.888 528C232.888 528.557 232.723 529.102 232.413 529.565C232.104 530.028 231.664 530.389 231.149 530.602C230.635 530.815 230.069 530.871 229.522 530.762C228.976 530.653 228.474 530.385 228.081 529.991C227.687 529.597 227.419 529.096 227.31 528.549C227.201 528.003 227.257 527.437 227.47 526.922C227.683 526.408 228.044 525.968 228.507 525.659C228.97 525.349 229.515 525.184 230.072 525.184C230.819 525.184 231.535 525.481 232.063 526.009C232.591 526.537 232.888 527.253 232.888 528Z" fill="#FAFAFA"/>
<path d="M224.456 535.776C224.44 536.089 224.333 536.39 224.148 536.642C223.963 536.895 223.708 537.087 223.415 537.196C223.121 537.305 222.803 537.326 222.498 537.255C222.193 537.185 221.915 537.026 221.699 536.8C221.483 536.573 221.339 536.288 221.283 535.98C221.228 535.672 221.264 535.355 221.387 535.067C221.51 534.779 221.715 534.534 221.976 534.361C222.237 534.189 222.543 534.097 222.856 534.096C223.073 534.096 223.288 534.14 223.487 534.225C223.687 534.311 223.867 534.436 224.017 534.593C224.166 534.75 224.282 534.936 224.358 535.139C224.433 535.343 224.467 535.559 224.456 535.776Z" fill="#FAFAFA"/>
<path d="M219.688 525.248C219.688 525.517 219.608 525.78 219.459 526.004C219.309 526.227 219.097 526.402 218.848 526.505C218.6 526.608 218.326 526.635 218.063 526.582C217.799 526.53 217.556 526.4 217.366 526.21C217.176 526.02 217.047 525.777 216.994 525.514C216.942 525.25 216.968 524.976 217.071 524.728C217.174 524.479 217.349 524.267 217.572 524.117C217.796 523.968 218.059 523.888 218.328 523.888C218.689 523.888 219.035 524.031 219.29 524.287C219.545 524.542 219.688 524.887 219.688 525.248Z" fill="#FAFAFA"/>
</g>
<path d="M439.448 138.832C439.448 139.174 439.347 139.508 439.157 139.792C438.967 140.076 438.697 140.298 438.381 140.428C438.065 140.559 437.718 140.593 437.383 140.527C437.048 140.46 436.74 140.296 436.498 140.054C436.256 139.812 436.092 139.504 436.025 139.169C435.958 138.834 435.993 138.486 436.123 138.171C436.254 137.855 436.476 137.585 436.76 137.395C437.044 137.205 437.378 137.104 437.72 137.104C438.178 137.104 438.618 137.286 438.942 137.61C439.266 137.934 439.448 138.374 439.448 138.832Z" fill="#FAFAFA"/>
<path d="M447.592 116.16L451.496 120.016L456.872 118.976C456.986 118.955 457.105 118.966 457.213 119.008C457.322 119.05 457.417 119.122 457.487 119.215C457.557 119.308 457.599 119.419 457.609 119.536C457.619 119.652 457.597 119.768 457.544 119.872L455.096 124.8L457.736 129.6C457.795 129.703 457.824 129.819 457.819 129.937C457.814 130.055 457.776 130.169 457.709 130.267C457.642 130.364 457.549 130.44 457.44 130.486C457.332 130.533 457.212 130.547 457.096 130.528L451.688 129.712L447.928 133.712C447.848 133.798 447.745 133.859 447.631 133.889C447.518 133.918 447.398 133.916 447.286 133.88C447.175 133.845 447.075 133.779 446.999 133.69C446.923 133.601 446.873 133.492 446.856 133.376L445.96 127.968L441 125.648C440.895 125.597 440.807 125.517 440.745 125.418C440.684 125.319 440.651 125.205 440.651 125.088C440.651 124.972 440.684 124.857 440.745 124.758C440.807 124.66 440.895 124.58 441 124.528L445.8 122L446.488 116.56C446.488 116.432 446.527 116.307 446.601 116.201C446.674 116.096 446.779 116.016 446.899 115.972C447.02 115.929 447.151 115.923 447.275 115.957C447.399 115.99 447.51 116.062 447.592 116.16Z" fill="#FAFAFA"/>
<path d="M311.8 365.936L312.408 370.144L316.2 372.016C316.281 372.055 316.349 372.117 316.397 372.193C316.445 372.269 316.471 372.358 316.471 372.448C316.471 372.538 316.445 372.627 316.397 372.703C316.349 372.779 316.281 372.841 316.2 372.88L312.408 374.752L311.784 378.96C311.769 379.047 311.73 379.129 311.672 379.195C311.614 379.262 311.539 379.311 311.454 379.338C311.37 379.364 311.28 379.367 311.194 379.346C311.108 379.324 311.03 379.279 310.968 379.216L308.008 376.176L303.832 376.896C303.742 376.914 303.649 376.905 303.564 376.872C303.479 376.838 303.405 376.781 303.351 376.707C303.298 376.633 303.266 376.546 303.26 376.454C303.255 376.363 303.275 376.272 303.32 376.192L305.288 372.448L303.32 368.688C303.287 368.611 303.275 368.527 303.284 368.443C303.292 368.36 303.322 368.28 303.37 368.212C303.418 368.143 303.483 368.088 303.558 368.051C303.633 368.014 303.716 367.996 303.8 368L307.976 368.72L310.936 365.696C310.997 365.625 311.078 365.573 311.168 365.546C311.258 365.518 311.353 365.517 311.444 365.543C311.534 365.568 311.616 365.618 311.679 365.688C311.742 365.757 311.784 365.843 311.8 365.936Z" fill="#FAFAFA"/>
<path d="M687.88 95.0881L692.04 94.3361L693.784 90.4641C693.823 90.383 693.884 90.3145 693.961 90.2667C694.037 90.2188 694.126 90.1934 694.216 90.1934C694.306 90.1934 694.394 90.2188 694.471 90.2667C694.547 90.3145 694.608 90.383 694.648 90.4641L696.664 94.2081L700.872 94.6721C700.96 94.6816 701.044 94.7153 701.114 94.7694C701.184 94.8235 701.238 94.8961 701.269 94.9789C701.301 95.0617 701.309 95.1516 701.292 95.2387C701.276 95.3258 701.235 95.4065 701.176 95.4721L698.248 98.5441L699.112 102.688C699.128 102.777 699.12 102.868 699.088 102.953C699.057 103.037 699.003 103.111 698.932 103.167C698.861 103.223 698.776 103.259 698.687 103.27C698.597 103.282 698.506 103.269 698.424 103.232L694.6 101.392L691 103.456C690.922 103.502 690.833 103.525 690.742 103.523C690.652 103.521 690.564 103.493 690.489 103.443C690.414 103.392 690.354 103.322 690.317 103.239C690.28 103.157 690.267 103.066 690.28 102.976L690.856 98.7681L687.656 95.9201C687.588 95.861 687.539 95.7842 687.513 95.6983C687.487 95.6124 687.485 95.521 687.509 95.4344C687.532 95.3477 687.579 95.2694 687.645 95.2082C687.71 95.147 687.792 95.1054 687.88 95.0881Z" fill="#FAFAFA"/>
<path d="M434.792 541.28C435.155 541.492 435.448 541.808 435.632 542.186C435.816 542.564 435.885 542.988 435.828 543.405C435.771 543.822 435.592 544.213 435.313 544.528C435.035 544.843 434.669 545.069 434.262 545.176C433.855 545.283 433.426 545.268 433.028 545.131C432.63 544.994 432.281 544.742 432.026 544.408C431.771 544.073 431.621 543.67 431.595 543.25C431.569 542.83 431.668 542.412 431.88 542.048C432.019 541.805 432.205 541.592 432.427 541.421C432.65 541.25 432.904 541.126 433.175 541.054C433.446 540.983 433.729 540.966 434.006 541.005C434.284 541.044 434.551 541.137 434.792 541.28Z" fill="#F0F0F0"/>
<path d="M440.072 534.256C440.357 534.42 440.566 534.691 440.653 535.009C440.74 535.326 440.698 535.665 440.536 535.952C440.455 536.094 440.346 536.218 440.217 536.317C440.087 536.417 439.939 536.489 439.782 536.531C439.624 536.573 439.459 536.582 439.298 536.56C439.136 536.538 438.98 536.483 438.84 536.4C438.699 536.319 438.576 536.211 438.477 536.083C438.377 535.954 438.305 535.807 438.262 535.651C438.22 535.494 438.209 535.33 438.23 535.169C438.251 535.008 438.303 534.853 438.384 534.712C438.465 534.571 438.573 534.448 438.701 534.349C438.83 534.25 438.977 534.177 439.133 534.135C439.29 534.092 439.454 534.081 439.615 534.102C439.776 534.123 439.931 534.175 440.072 534.256Z" fill="#FAFAFA"/>
<path d="M501.96 573.072L497.944 574.464L496.824 578.544C496.8 578.631 496.753 578.709 496.686 578.77C496.62 578.831 496.538 578.873 496.45 578.889C496.362 578.906 496.27 578.898 496.186 578.865C496.103 578.832 496.03 578.776 495.976 578.704L493.416 575.328L489.176 575.52C489.084 575.527 488.992 575.506 488.912 575.462C488.831 575.418 488.765 575.351 488.721 575.27C488.677 575.189 488.658 575.097 488.664 575.005C488.671 574.914 488.704 574.826 488.76 574.752L491.176 571.28L489.688 567.312C489.653 567.228 489.643 567.134 489.659 567.044C489.675 566.954 489.717 566.87 489.779 566.803C489.841 566.735 489.922 566.687 490.01 566.664C490.099 566.641 490.193 566.644 490.28 566.672L494.344 567.904L497.656 565.264C497.726 565.207 497.811 565.171 497.901 565.159C497.991 565.148 498.082 565.163 498.164 565.201C498.246 565.24 498.315 565.301 498.364 565.377C498.413 565.453 498.439 565.542 498.44 565.632V569.872L501.976 572.208C502.056 572.249 502.124 572.312 502.17 572.389C502.217 572.466 502.24 572.555 502.239 572.645C502.237 572.735 502.21 572.823 502.161 572.899C502.111 572.974 502.042 573.035 501.96 573.072Z" fill="#FAFAFA"/>
<path d="M777.176 273.392C777.697 273.188 778.267 273.143 778.814 273.263C779.36 273.382 779.859 273.661 780.248 274.064C780.636 274.467 780.897 274.976 780.996 275.527C781.095 276.077 781.029 276.645 780.806 277.158C780.583 277.672 780.213 278.107 779.742 278.41C779.272 278.713 778.722 278.87 778.162 278.861C777.603 278.852 777.058 278.677 776.598 278.359C776.138 278.04 775.782 277.593 775.576 277.072C775.439 276.726 775.371 276.355 775.377 275.983C775.383 275.61 775.463 275.242 775.612 274.9C775.76 274.558 775.975 274.249 776.243 273.99C776.512 273.732 776.829 273.528 777.176 273.392Z" fill="#FAFAFA"/>
<path d="M314.008 566.592C313.317 565.897 312.93 564.956 312.93 563.976C312.93 562.996 313.317 562.056 314.008 561.36C314.703 560.669 315.644 560.282 316.624 560.282C317.604 560.282 318.545 560.669 319.24 561.36C319.24 561.36 393.064 637.488 391.608 638.944C390.152 640.4 314.008 566.592 314.008 566.592Z" fill="url(#paint1_linear_94_152)"/>
<path d="M315.4 562.736C315.773 562.364 316.279 562.157 316.806 562.158C317.332 562.16 317.837 562.37 318.208 562.744C318.579 563.117 318.787 563.623 318.786 564.149C318.784 564.676 318.573 565.18 318.2 565.552C318.015 565.736 317.796 565.881 317.555 565.98C317.313 566.079 317.055 566.13 316.794 566.129C316.534 566.129 316.276 566.077 316.035 565.976C315.794 565.876 315.576 565.729 315.392 565.544C315.208 565.359 315.063 565.14 314.963 564.898C314.864 564.657 314.814 564.399 314.814 564.138C314.815 563.877 314.867 563.619 314.968 563.379C315.068 563.138 315.215 562.92 315.4 562.736Z" fill="#FAFAFA"/>
<path d="M567.304 73.6001C567.581 73.3218 567.935 73.1321 568.32 73.0548C568.705 72.9776 569.104 73.0164 569.467 73.1664C569.83 73.3163 570.141 73.5706 570.359 73.897C570.577 74.2235 570.694 74.6074 570.694 75.0001C570.694 75.3929 570.577 75.7768 570.359 76.1032C570.141 76.4297 569.83 76.684 569.467 76.8339C569.104 76.9838 568.705 77.0226 568.32 76.9454C567.935 76.8682 567.581 76.6784 567.304 76.4001C566.934 76.0283 566.726 75.5249 566.726 75.0001C566.726 74.4753 566.934 73.9719 567.304 73.6001Z" fill="#FAFAFA"/>
</g>
<defs>
<linearGradient id="paint0_linear_94_152" x1="761.633" y1="408.231" x2="724.462" y2="328.482" gradientUnits="userSpaceOnUse">
<stop stop-color="#455A64" stop-opacity="0"/>
<stop offset="0.3" stop-color="#3D7F7E" stop-opacity="0.28"/>
<stop offset="0.99" stop-color="#27DCBE" stop-opacity="0.99"/>
<stop offset="1" stop-color="#285CBA"/>
</linearGradient>
<linearGradient id="paint1_linear_94_152" x1="316.68" y1="564.032" x2="391.832" y2="639.184" gradientUnits="userSpaceOnUse">
<stop stop-color="#285CBA"/>
<stop offset="0.8" stop-color="#455A64"/>
<stop offset="1" stop-color="#455A64" stop-opacity="0"/>
</linearGradient>
</defs>
</svg>
