<svg width="65" height="64" viewBox="0 0 65 64" fill="none" xmlns="http://www.w3.org/2000/svg">
<path d="M27.7266 2H7.72656C6.40048 2 5.12871 2.52678 4.19103 3.46447C3.25335 4.40215 2.72656 5.67392 2.72656 7V43.6667C2.72656 44.9927 3.25335 46.2645 4.19103 47.2022C5.12871 48.1399 6.40048 48.6667 7.72656 48.6667H57.7266C59.0526 48.6667 60.3244 48.1399 61.2621 47.2022C62.1998 46.2645 62.7266 44.9927 62.7266 43.6667V27M32.7266 48.6667V62" stroke="#053C9D" stroke-width="4" stroke-linecap="round" stroke-linejoin="round"/>
<path d="M46.0599 2L39.3933 8.66667L46.0599 15.3333M56.0599 2L62.7266 8.66667L56.0599 15.3333M16.0599 62H49.3933" stroke="#053C9D" stroke-width="4" stroke-linecap="round" stroke-linejoin="round"/>
</svg>
