<svg width="75" height="75" viewBox="0 0 75 75" fill="none" xmlns="http://www.w3.org/2000/svg">
<g filter="url(#filter0_d_68_616)">
<path d="M32.7266 2H12.7266C11.4005 2 10.1287 2.52678 9.19103 3.46447C8.25335 4.40215 7.72656 5.67392 7.72656 7V43.6667C7.72656 44.9927 8.25335 46.2645 9.19103 47.2022C10.1287 48.1399 11.4005 48.6667 12.7266 48.6667H62.7266C64.0526 48.6667 65.3244 48.1399 66.2621 47.2022C67.1998 46.2645 67.7266 44.9927 67.7266 43.6667V27M37.7266 48.6667V62" stroke="#053C9D" stroke-width="4" stroke-linecap="round" stroke-linejoin="round"/>
<path d="M51.0599 2L44.3933 8.66667L51.0599 15.3333M61.0599 2L67.7266 8.66667L61.0599 15.3333M21.0599 62H54.3933" stroke="#053C9D" stroke-width="4" stroke-linecap="round" stroke-linejoin="round"/>
</g>
<defs>
<filter id="filter0_d_68_616" x="0.726562" y="0" width="74" height="75" filterUnits="userSpaceOnUse" color-interpolation-filters="sRGB">
<feFlood flood-opacity="0" result="BackgroundImageFix"/>
<feColorMatrix in="SourceAlpha" type="matrix" values="0 0 0 0 0 0 0 0 0 0 0 0 0 0 0 0 0 0 127 0" result="hardAlpha"/>
<feOffset dy="6"/>
<feGaussianBlur stdDeviation="2.5"/>
<feComposite in2="hardAlpha" operator="out"/>
<feColorMatrix type="matrix" values="0 0 0 0 0 0 0 0 0 0 0 0 0 0 0 0 0 0 0.35 0"/>
<feBlend mode="normal" in2="BackgroundImageFix" result="effect1_dropShadow_68_616"/>
<feBlend mode="normal" in="SourceGraphic" in2="effect1_dropShadow_68_616" result="shape"/>
</filter>
</defs>
</svg>
