<svg width="70" height="70" viewBox="0 0 70 70" fill="none" xmlns="http://www.w3.org/2000/svg">
<path d="M32.0137 1.246L1.24078 32.0131C0.847497 32.4052 0.535447 32.8712 0.322525 33.3842C0.109604 33.8973 0 34.4474 0 35.0029C0 35.5584 0.109604 36.1085 0.322525 36.6216C0.535447 37.1346 0.847497 37.6006 1.24078 37.9927L32.0137 68.7595C33.6682 70.4134 36.3403 70.4134 37.9945 68.7595L50.8974 55.8594C52.3791 54.378 52.3791 51.9762 50.8974 50.495C49.4157 49.0135 47.0135 49.0135 45.5319 50.495L35.7504 60.2743C35.3386 60.686 34.7137 60.686 34.3019 60.2743L9.72743 35.705C9.31565 35.2932 9.31565 34.6684 9.72743 34.2567L34.3019 9.68715C34.7137 9.27566 35.3386 9.27566 35.7504 9.68715L45.5319 19.4667C47.0135 20.9481 49.4157 20.9481 50.8974 19.4667C52.3791 17.9852 52.3791 15.5837 50.8974 14.1022L37.9959 1.20378C36.3348 -0.414759 33.6616 -0.4016 32.0137 1.246Z" fill="url(#paint0_linear_68_621)"/>
<path d="M32.0137 1.24604L1.24078 32.0131C0.847497 32.4053 0.535447 32.8712 0.322525 33.3843C0.109604 33.8973 0 34.4474 0 35.0029C0 35.5585 0.109604 36.1086 0.322525 36.6216C0.535447 37.1347 0.847497 37.6006 1.24078 37.9928L32.0137 68.7596C33.6682 70.4135 36.3403 70.4135 37.9945 68.7596L50.8974 55.8595C52.3791 54.378 52.3791 51.9762 50.8974 50.4951C49.4157 49.0136 47.0135 49.0136 45.5319 50.4951L35.7504 60.2743C35.3386 60.6861 34.7137 60.6861 34.3019 60.2743L9.72743 35.705C9.31565 35.2933 9.31565 34.6685 9.72743 34.2567L34.3019 9.68718C35.3271 8.80279 37.0003 7.01154 39.4568 6.5921C41.2825 6.28095 43.2787 6.96631 45.445 8.64818L37.9962 1.20354C36.3348 -0.414724 33.6619 -0.401565 32.0137 1.24604Z" fill="url(#paint1_linear_68_621)"/>
<path d="M53.8759 47.634C55.3576 49.1155 57.7598 49.1155 59.2415 47.634L68.7591 38.1185C69.1524 37.7264 69.4644 37.2604 69.6774 36.7474C69.8903 36.2343 69.9999 35.6843 69.9999 35.1287C69.9999 34.5732 69.8903 34.0231 69.6774 33.51C69.4644 32.997 69.1524 32.531 68.7591 32.1389L59.1587 22.574C57.6735 21.0945 55.2705 21.0967 53.788 22.579C52.3063 24.0605 52.3063 26.4619 53.788 27.9434L60.2722 34.4264C60.684 34.8381 60.684 35.4629 60.2722 35.8747L53.8759 42.2696C52.3943 43.7511 52.3943 46.1528 53.8759 47.634Z" fill="url(#paint2_linear_68_621)"/>
<path d="M35.158 43.4638C39.7468 43.4638 43.4668 39.7446 43.4668 35.1567C43.4668 30.5688 39.7468 26.8496 35.158 26.8496C30.5691 26.8496 26.8491 30.5688 26.8491 35.1567C26.8491 39.7446 30.5691 43.4638 35.158 43.4638Z" fill="url(#paint3_linear_68_621)"/>
<defs>
<linearGradient id="paint0_linear_68_621" x1="3229.84" y1="6.00544e-05" x2="6155.17" y2="1785.36" gradientUnits="userSpaceOnUse">
<stop stop-color="#159DBE"/>
<stop offset="1" stop-color="#2EC7FF"/>
</linearGradient>
<linearGradient id="paint1_linear_68_621" x1="3622.09" y1="6.24307e-05" x2="2176.03" y2="7469.11" gradientUnits="userSpaceOnUse">
<stop stop-color="#043A9C"/>
<stop offset="0.333333" stop-color="#16A2C0"/>
<stop offset="1" stop-color="#005AFF"/>
</linearGradient>
<linearGradient id="paint2_linear_68_621" x1="1259.94" y1="-332.456" x2="-621.043" y2="2607.4" gradientUnits="userSpaceOnUse">
<stop stop-color="#16A7C1"/>
<stop offset="0.41473" stop-color="#15A2C0"/>
<stop offset="1" stop-color="#043A9C"/>
</linearGradient>
<linearGradient id="paint3_linear_68_621" x1="1158.98" y1="-566.127" x2="532.941" y2="1936.6" gradientUnits="userSpaceOnUse">
<stop stop-color="#15A1C0"/>
<stop offset="0.51264" stop-color="#16A5C1"/>
<stop offset="1" stop-color="#F51D2C"/>
</linearGradient>
</defs>
</svg>
