<svg width="80" height="81" viewBox="0 0 80 81" fill="none" xmlns="http://www.w3.org/2000/svg">
<g filter="url(#filter0_d_68_621)">
<path d="M37.0137 1.246L6.24078 32.0131C5.8475 32.4052 5.53545 32.8712 5.32253 33.3842C5.1096 33.8973 5 34.4474 5 35.0029C5 35.5584 5.1096 36.1085 5.32253 36.6216C5.53545 37.1346 5.8475 37.6006 6.24078 37.9927L37.0137 68.7595C38.6682 70.4134 41.3403 70.4134 42.9945 68.7595L55.8974 55.8594C57.3791 54.378 57.3791 51.9762 55.8974 50.495C54.4157 49.0135 52.0135 49.0135 50.5319 50.495L40.7504 60.2743C40.3386 60.686 39.7137 60.686 39.3019 60.2743L14.7274 35.705C14.3156 35.2932 14.3156 34.6684 14.7274 34.2567L39.3019 9.68715C39.7137 9.27566 40.3386 9.27566 40.7504 9.68715L50.5319 19.4667C52.0135 20.9481 54.4157 20.9481 55.8974 19.4667C57.3791 17.9852 57.3791 15.5837 55.8974 14.1022L42.9959 1.20378C41.3348 -0.414759 38.6616 -0.4016 37.0137 1.246Z" fill="url(#paint0_linear_68_621)"/>
<path d="M37.0137 1.24604L6.24078 32.0131C5.8475 32.4053 5.53545 32.8712 5.32253 33.3843C5.1096 33.8973 5 34.4474 5 35.0029C5 35.5585 5.1096 36.1086 5.32253 36.6216C5.53545 37.1347 5.8475 37.6006 6.24078 37.9928L37.0137 68.7596C38.6682 70.4135 41.3403 70.4135 42.9945 68.7596L55.8974 55.8595C57.3791 54.378 57.3791 51.9762 55.8974 50.4951C54.4157 49.0136 52.0135 49.0136 50.5319 50.4951L40.7504 60.2743C40.3386 60.6861 39.7137 60.6861 39.3019 60.2743L14.7274 35.705C14.3156 35.2933 14.3156 34.6685 14.7274 34.2567L39.3019 9.68718C40.3271 8.80279 42.0003 7.01154 44.4568 6.5921C46.2825 6.28095 48.2787 6.96631 50.445 8.64818L42.9962 1.20354C41.3348 -0.414724 38.6619 -0.401565 37.0137 1.24604Z" fill="url(#paint1_linear_68_621)"/>
<path d="M58.8759 47.634C60.3576 49.1155 62.7598 49.1155 64.2415 47.634L73.7591 38.1185C74.1524 37.7264 74.4644 37.2604 74.6774 36.7474C74.8903 36.2343 74.9999 35.6843 74.9999 35.1287C74.9999 34.5732 74.8903 34.0231 74.6774 33.51C74.4644 32.997 74.1524 32.531 73.7591 32.1389L64.1587 22.574C62.6735 21.0945 60.2705 21.0967 58.788 22.579C57.3063 24.0605 57.3063 26.4619 58.788 27.9434L65.2722 34.4264C65.684 34.8381 65.684 35.4629 65.2722 35.8747L58.8759 42.2696C57.3943 43.7511 57.3943 46.1528 58.8759 47.634Z" fill="url(#paint2_linear_68_621)"/>
<path d="M40.158 43.4638C44.7468 43.4638 48.4668 39.7446 48.4668 35.1567C48.4668 30.5688 44.7468 26.8496 40.158 26.8496C35.5691 26.8496 31.8491 30.5688 31.8491 35.1567C31.8491 39.7446 35.5691 43.4638 40.158 43.4638Z" fill="url(#paint3_linear_68_621)"/>
</g>
<defs>
<filter id="filter0_d_68_621" x="0" y="0" width="79.9999" height="81" filterUnits="userSpaceOnUse" color-interpolation-filters="sRGB">
<feFlood flood-opacity="0" result="BackgroundImageFix"/>
<feColorMatrix in="SourceAlpha" type="matrix" values="0 0 0 0 0 0 0 0 0 0 0 0 0 0 0 0 0 0 127 0" result="hardAlpha"/>
<feOffset dy="6"/>
<feGaussianBlur stdDeviation="2.5"/>
<feComposite in2="hardAlpha" operator="out"/>
<feColorMatrix type="matrix" values="0 0 0 0 0 0 0 0 0 0 0 0 0 0 0 0 0 0 0.35 0"/>
<feBlend mode="normal" in2="BackgroundImageFix" result="effect1_dropShadow_68_621"/>
<feBlend mode="normal" in="SourceGraphic" in2="effect1_dropShadow_68_621" result="shape"/>
</filter>
<linearGradient id="paint0_linear_68_621" x1="3234.84" y1="6.00544e-05" x2="6160.17" y2="1785.36" gradientUnits="userSpaceOnUse">
<stop stop-color="#159DBE"/>
<stop offset="1" stop-color="#2EC7FF"/>
</linearGradient>
<linearGradient id="paint1_linear_68_621" x1="3627.09" y1="6.24307e-05" x2="2181.03" y2="7469.11" gradientUnits="userSpaceOnUse">
<stop stop-color="#043A9C"/>
<stop offset="0.333333" stop-color="#16A2C0"/>
<stop offset="1" stop-color="#005AFF"/>
</linearGradient>
<linearGradient id="paint2_linear_68_621" x1="1264.94" y1="-332.456" x2="-616.043" y2="2607.4" gradientUnits="userSpaceOnUse">
<stop stop-color="#16A7C1"/>
<stop offset="0.41473" stop-color="#15A2C0"/>
<stop offset="1" stop-color="#043A9C"/>
</linearGradient>
<linearGradient id="paint3_linear_68_621" x1="1163.98" y1="-566.127" x2="537.941" y2="1936.6" gradientUnits="userSpaceOnUse">
<stop stop-color="#15A1C0"/>
<stop offset="0.51264" stop-color="#16A5C1"/>
<stop offset="1" stop-color="#F51D2C"/>
</linearGradient>
</defs>
</svg>
